<?xml version="1.0" encoding="UTF-8" standalone="no"?>
<svg
   class="title Logo_logo__Fpa8_ Logo_logo--animated__GYFY0"
   viewBox="0 0 214.434 39.948"
   version="1.1"
   id="svg23"
   sodipodi:docname="atomix.svg"
   inkscape:version="1.1.2 (0a00cf5339, 2022-02-04)"
   xmlns:inkscape="http://www.inkscape.org/namespaces/inkscape"
   xmlns:sodipodi="http://sodipodi.sourceforge.net/DTD/sodipodi-0.dtd"
   xmlns="http://www.w3.org/2000/svg"
   xmlns:svg="http://www.w3.org/2000/svg">
  <defs
     id="defs27" />
  <sodipodi:namedview
     id="namedview25"
     pagecolor="#ffffff"
     bordercolor="#666666"
     borderopacity="1.0"
     inkscape:pageshadow="2"
     inkscape:pageopacity="0.0"
     inkscape:pagecheckerboard="0"
     showgrid="false"
     inkscape:zoom="6.73867"
     inkscape:cx="82.434664"
     inkscape:cy="20.033627"
     inkscape:window-width="1920"
     inkscape:window-height="1001"
     inkscape:window-x="0"
     inkscape:window-y="0"
     inkscape:window-maximized="1"
     inkscape:current-layer="svg23" />
  <g
     id="Group_2730"
     data-name="Group 2730">
    <path
       id="Path_5130"
       d="M 158.163 7.225 L 158.163 6.596 L 158.163 6.586 C 158.157 6.03802 157.711 5.59697 157.163 5.597 L 152.05 5.597 C 151.502 5.59697 151.056 6.03802 151.05 6.586 C 151.044 7.13398 151.05 6.593 151.05 6.596 L 151.05 7.225 L 151.05 7.235 L 151.05 38.202 L 151.05 38.212 L 151.05 38.841 L 151.05 38.851 C 151.056 39.399 151.502 39.84 152.05 39.84 L 157.163 39.84 C 157.711 39.84 158.157 39.399 158.163 38.851 C 158.169 38.303 158.163 38.845 158.163 38.841 L 158.163 38.212 L 158.163 38.202 L 158.163 7.235 L 158.163 7.225 Z"
       class="Logo_logo__path__N1sSn"
       data-name="Path 5130" />
    <g
       id="Group_1846"
       data-name="Group 1846">
      <path
         id="Path_5131"
         d="M 134.543 5.018 C 128.788 5.018 125.105 7.858 123.294 11.154 C 121.436 7.23942 117.411 4.8211 113.082 5.018 C 109.009 4.83028 105.17 6.92417 103.123 10.45 L 103.123 6.663 C 103.123 6.11729 102.686 5.67228 102.14 5.663 L 96.997 5.663 C 96.451 5.67174 96.0129 6.1169 96.013 6.663 L 96.013 38.835 C 96.013 39.1002 96.1184 39.3546 96.3059 39.5421 C 96.4934 39.7296 96.7478 39.835 97.013 39.835 L 102.128 39.835 C 102.393 39.835 102.648 39.7296 102.835 39.5421 C 103.023 39.3546 103.128 39.1002 103.128 38.835 L 103.128 20.014 C 103.128 14.583 106.102 11.481 110.691 11.481 C 115.154 11.481 117.802 14.581 117.802 20.014 L 117.802 38.835 C 117.802 39.1014 117.908 39.3569 118.097 39.5446 C 118.286 39.7323 118.543 39.8369 118.809 39.835 L 123.969 39.835 C 124.235 39.8369 124.492 39.7323 124.681 39.5446 C 124.87 39.3569 124.976 39.1014 124.976 38.835 L 124.976 20.014 C 124.976 14.583 127.888 11.481 132.476 11.481 C 136.938 11.481 139.587 14.581 139.587 20.014 L 139.587 38.835 C 139.587 39.1016 139.693 39.3572 139.883 39.545 C 140.072 39.7327 140.328 39.8371 140.595 39.835 L 145.756 39.835 C 146.023 39.8371 146.279 39.7327 146.468 39.545 C 146.658 39.3572 146.764 39.1016 146.764 38.835 L 146.764 19.625 C 146.762 9.477 141.589 5.016 134.543 5.018 Z"
         class="Logo_logo__path__N1sSn"
         data-name="Path 5131" />
    </g>
    <path
       id="Path_4946"
       d="M 56.618 22.48 C 56.618 11.167 65.47 5.026 74.201 5.026 C 82.932 5.026 91.783 11.162 91.783 22.48 C 91.783 33.798 82.931 39.934 74.201 39.934 C 65.471 39.934 56.618 33.792 56.618 22.48 Z M 84.673 22.48 C 84.673 15.563 79.694 11.555 74.201 11.555 C 68.708 11.555 63.664 15.563 63.664 22.48 C 63.664 29.397 68.706 33.405 74.201 33.405 C 79.696 33.405 84.674 29.397 84.674 22.48 Z"
       class="Logo_logo__path__N1sSn"
       data-name="Path 4946" />
    <path
       id="Path_5132"
       d="M 34.167 4.909 L 29.054 4.909 C 28.7888 4.909 28.5344 5.01436 28.3469 5.20189 C 28.1594 5.38943 28.054 5.64378 28.054 5.909 L 28.054 8.209 C 24.9731 6.08962 21.3205 4.95751 17.581 4.963 C 8.856 4.963 -0.001 11.1 -0.001 22.417 C -0.001 33.734 8.851 39.871 17.581 39.871 C 21.3205 39.8767 24.9732 38.7446 28.054 36.625 L 28.054 38.852 C 28.054 39.4 28.495 39.846 29.043 39.852 L 34.176 39.852 C 34.724 39.846 35.165 39.4 35.165 38.852 L 35.165 5.908 C 35.1644 5.35689 34.7181 4.9101 34.167 4.909 Z M 17.586 33.333 L 17.586 33.333 C 12.092 33.333 7.05 29.325 7.05 22.408 C 7.05 15.491 12.092 11.483 17.586 11.483 C 23.08 11.483 28.059 15.491 28.059 22.408 C 28.059 29.325 23.078 33.334 17.586 33.334 Z"
       class="Logo_logo__path__N1sSn"
       data-name="Path 5132" />
    <g
       id="Group_1847"
       data-name="Group 1847">
      <path
         id="Path_5133"
         d="M 41.108 1.634 L 41.444 1.539 C 41.3285 1.55674 41.2157 1.58865 41.108 1.634 Z"
         class="Logo_logo__path__N1sSn"
         data-name="Path 5133" />
      <path
         id="Path_5134"
         d="M 40.615 2.454 L 40.615 2.27 C 40.607 2.33107 40.607 2.39293 40.615 2.454 Z"
         class="Logo_logo__path__N1sSn"
         data-name="Path 5134" />
      <path
         id="Path_5135"
         d="M 41.453 1.539 L 41.453 1.539 Z"
         class="Logo_logo__path__N1sSn"
         data-name="Path 5135" />
      <path
         id="Path_5136"
         d="M 54.579 7.192 L 54.579 6.601 C 54.579 6.33578 54.4736 6.08143 54.2861 5.89389 C 54.0986 5.70636 53.8442 5.601 53.579 5.601 L 47.802 5.601 L 47.802 0.766 C 47.8219 0.525319 47.7197 0.290712 47.53 0.141251 C 47.3403 -0.0082094 47.0884 -0.0526154 46.859 0.023 L 41.459 1.54 L 41.459 1.54 L 41.123 1.635 C 40.8237 1.69424 40.6118 1.96211 40.623 2.267 L 40.623 31.416 C 40.623 37.428 44.245 39.95 49.349 39.95 C 51.16 39.95 53.358 39.626 54.58 38.592 L 54.58 34.144 C 54.604 33.8971 54.512 33.6531 54.3311 33.4833 C 54.1503 33.3136 53.9009 33.2374 53.656 33.277 C 53.622 33.277 53.588 33.277 53.556 33.285 C 53.4053 33.3031 53.2569 33.3366 53.113 33.385 L 53.113 33.385 L 53.053 33.397 C 52.5341 33.4941 52.0078 33.5459 51.48 33.552 C 48.83 33.552 47.797 32.064 47.797 30.125 L 47.797 11.353 L 52.113 11.353 L 53.586 11.353 C 53.8512 11.353 54.1056 11.2476 54.2931 11.0601 C 54.4806 10.8726 54.586 10.6182 54.586 10.353 L 54.586 9.745 L 54.586 9.745 L 54.586 7.19 Z"
         class="Logo_logo__path__N1sSn"
         data-name="Path 5136" />
    </g>
    <g
       id="Group_1849"
       data-name="Group 1849">
      <path
         id="Path_5138"
         d="M 188.655 39.94 L 188.433 39.94 C 188.507 39.9448 188.581 39.9448 188.655 39.94 Z"
         class="Logo_logo__path__N1sSn"
         data-name="Path 5138" />
      <path
         id="Path_5139"
         d="M 187.4 5.605 L 187.633 5.605 C 187.555 5.59967 187.478 5.59967 187.4 5.605 Z"
         class="Logo_logo__path__N1sSn"
         data-name="Path 5139" />
      <path
         id="Path_5140"
         d="M 169.074 39.94 L 168.852 39.94 C 168.926 39.9448 169 39.9448 169.074 39.94 Z"
         class="Logo_logo__path__N1sSn"
         data-name="Path 5140" />
      <path
         id="Path_5141"
         d="M 169.633 5.605 L 169.866 5.605 C 169.788 5.59967 169.711 5.59967 169.633 5.605 Z"
         class="Logo_logo__path__N1sSn"
         data-name="Path 5141" />
      <path
         id="Path_5142"
         d="M 195.496 39.046 L 195.496 39.046 L 182.905 22.375 L 194.413 6.349 L 194.413 6.349 C 194.413 6.349 194.833 5.61 193.859 5.607 L 187.401 5.607 C 187.061 5.60603 186.738 5.75187 186.514 6.007 L 186.514 6.007 L 178.655 16.98 L 170.755 6.007 C 170.531 5.75187 170.208 5.60603 169.868 5.607 L 163.431 5.607 C 162.456 5.607 162.877 6.349 162.877 6.349 L 174.75 22.187 L 174.62 22.363 L 174.63 22.376 L 162.012 39.047 L 162.012 39.047 C 162.012 39.047 161.555 39.795 162.52 39.94 L 169.077 39.94 C 169.394 39.9386 169.698 39.8154 169.926 39.596 L 178.763 27.61 L 187.572 39.584 C 187.8 39.811 188.109 39.9386 188.431 39.939 L 194.987 39.939 C 195.954 39.794 195.496 39.046 195.496 39.046 Z"
         class="Logo_logo__path__N1sSn"
         data-name="Path 5142" />
      <path
         id="Path_5143"
         d="M 188.652 39.935 L 188.652 39.935 Z"
         class="Logo_logo__path__N1sSn"
         data-name="Path 5143" />
      <path
         id="Path_5144"
         d="M 168.853 39.935 L 168.853 39.935 Z"
         class="Logo_logo__path__N1sSn"
         data-name="Path 5144" />
    </g>
    <g
       id="Group_1848"
       class="Logo_dot--animated__ykVLO"
       data-name="Group 1848">
      <path
         id="Path_5137"
         fill="#29bbea"
         d="M 214.187 32.466 C 213.953 29.634 212.67 26.716 209.874 25.666 C 207.717 24.8977 205.34 25.0458 203.296 26.076 C 201.116 27.2944 199.774 29.6054 199.796 32.103 C 199.838 33.3847 200.196 34.6361 200.838 35.746 C 201.076 36.1589 201.343 36.5539 201.638 36.928 C 203.996 39.4209 207.646 40.2054 210.82 38.902 C 211.346 38.5782 211.829 38.1899 212.259 37.746 C 213.547 36.2933 214.236 34.4065 214.187 32.466 Z"
         class="Logo_logo__path__N1sSn Logo_logo__path--blue__jAP48"
         data-name="Path 5137" />
    </g>
  </g>
</svg>
